<svg xmlns="http://www.w3.org/2000/svg" width="73" height="64" viewBox="0 0 73 64"><defs><style>.a{fill:#32abe2;}</style></defs><g transform="translate(-20 1)"><g transform="translate(20)"><path class="a" d="M58.369,63h0a2.605,2.605,0,0,1-2.427-1.631l-3.787-9.351a2.611,2.611,0,0,1,.413-2.639,21.651,21.651,0,0,0,4.315-8.51A2.607,2.607,0,0,1,59.413,38.9h1.629a.669.669,0,0,0,.664-.6,26.847,26.847,0,0,0,.154-2.872,26,26,0,0,0-2.808-11.85A26.606,26.606,0,0,0,46.857,11.671l-.624,1.541a2.6,2.6,0,0,1-2.424,1.626,2.646,2.646,0,0,1-.889-.154,21.988,21.988,0,0,0-5.78-1.211c-.532-.04-1.083-.061-1.64-.061s-1.107.02-1.636.061a21.994,21.994,0,0,0-5.784,1.211,2.646,2.646,0,0,1-.889.154,2.6,2.6,0,0,1-2.424-1.626l-.624-1.541a26.606,26.606,0,0,0-12.2,11.909A26,26,0,0,0,9.14,35.43,26.846,26.846,0,0,0,9.294,38.3a.669.669,0,0,0,.664.6h1.629a2.607,2.607,0,0,1,2.531,1.967,21.65,21.65,0,0,0,4.314,8.509,2.611,2.611,0,0,1,.413,2.639l-3.787,9.351a2.616,2.616,0,0,1-4.188.946A36.393,36.393,0,0,1-.716,39.992,36.852,36.852,0,0,1-1,35.43,36.47,36.47,0,0,1,29.2-.458l.085-.014a36.9,36.9,0,0,1,12.433,0h0l.085.014A36.4,36.4,0,0,1,72,35.43a36.853,36.853,0,0,1-.284,4.563A36.393,36.393,0,0,1,60.129,62.316,2.605,2.605,0,0,1,58.369,63Zm-3.034-8.313.016.038,2.4,5.918a.66.66,0,0,0,.622.417h0a.65.65,0,0,0,.445-.175,34.454,34.454,0,0,0,10.97-21.134,34.912,34.912,0,0,0,.269-4.322A34.528,34.528,0,0,0,41.543,1.466l-.079-.013a34.937,34.937,0,0,0-11.929,0l-.085.015A34.462,34.462,0,0,0,.947,35.43a34.911,34.911,0,0,0,.269,4.322,34.454,34.454,0,0,0,10.97,21.134.651.651,0,0,0,.445.175.66.66,0,0,0,.622-.417l3.787-9.351a.678.678,0,0,0-.113-.684,23.572,23.572,0,0,1-4.7-9.265.663.663,0,0,0-.643-.5H9.957a2.61,2.61,0,0,1-2.6-2.332,28.789,28.789,0,0,1-.165-3.08,28.464,28.464,0,0,1,.768-6.583,27.941,27.941,0,0,1,2.249-6.141A28.522,28.522,0,0,1,24.279,9.479l.9-.386.4.942.992,2.451a.662.662,0,0,0,.619.412.7.7,0,0,0,.235-.041,23.942,23.942,0,0,1,6.294-1.319c.575-.044,1.175-.066,1.781-.066s1.206.022,1.784.066a23.935,23.935,0,0,1,6.29,1.319.7.7,0,0,0,.235.041.662.662,0,0,0,.619-.412l1.012-2.5.384-.895.9.386A28.225,28.225,0,0,1,63.039,28.847a28.463,28.463,0,0,1,.768,6.583,28.79,28.79,0,0,1-.165,3.08,2.61,2.61,0,0,1-2.6,2.332H59.413a.663.663,0,0,0-.643.5,23.573,23.573,0,0,1-4.7,9.265.678.678,0,0,0-.113.684Z" transform="translate(1)"/></g></g></svg>