<svg xmlns="http://www.w3.org/2000/svg" width="64" height="64" viewBox="0 0 64 64"><defs><style>.a{fill:#2babe2;}</style></defs><g transform="translate(-33)"><path class="a" d="M31,63A32.008,32.008,0,0,1,18.544,1.515a32.008,32.008,0,0,1,24.912,58.97A31.8,31.8,0,0,1,31,63ZM31,.939A30.069,30.069,0,0,0,19.3,58.7,30.069,30.069,0,0,0,42.7,3.3,29.87,29.87,0,0,0,31,.939Zm0,52.079a21.952,21.952,0,1,1,8.571-1.731A21.881,21.881,0,0,1,31,53.019Zm0-42.1A20.013,20.013,0,1,0,38.816,12.5,19.952,19.952,0,0,0,31,10.922Z" transform="translate(34 1)"/></g></svg>