<svg xmlns="http://www.w3.org/2000/svg" width="50" height="64" viewBox="0 0 50 64"><defs><style>.a{fill:#2babe2;}</style></defs><path class="a" d="M2.016,6.582H17.54V28.149H40.524V38.932H17.54V57.418H2.016ZM18.145,0V5.182H16.018V0H14.607V5.182H12.329V0H10.917V5.182H8.639V0H7.228V5.182H4.95V0H3.539V5.182H1.411V0H0V64H1.411V58.818H3.539V64H4.95V58.818H7.228V64H8.639V58.818h2.278V64h1.411V58.818h2.278V64h1.411V58.818h2.127V64h1.411V40.333H50v-.98H42.54V37.875H50v-.98H42.54V35.312H50v-.98H42.54V32.749H50v-.98H42.54V30.187H50v-.98H42.54V27.729H50v-.98H19.556V0Z"/></svg>