<svg xmlns="http://www.w3.org/2000/svg" width="14" height="14" viewBox="0 0 14 14"><defs><style>.a{fill:#fff;}</style></defs><g transform="translate(-2.119 -2.75)"><path class="a" d="M9.25,2.25a7,7,0,1,1-7,7A7.008,7.008,0,0,1,9.25,2.25Zm0,12.8a5.8,5.8,0,1,0-5.8-5.8A5.807,5.807,0,0,0,9.25,15.05Z" transform="translate(-0.131 0.5)"/><path class="a" d="M20.5,14.75a.747.747,0,0,1-.335-.079l-2.5-1.25a.75.75,0,0,1-.415-.671V9a.75.75,0,0,1,1.5,0v3.286l2.085,1.043A.75.75,0,0,1,20.5,14.75Z" transform="translate(-9.945 -2.091)"/></g></svg>