<svg xmlns="http://www.w3.org/2000/svg" width="65.001" height="65.002" viewBox="0 0 65.001 65.002"><defs><style>.a{fill:#2babe2;}.b{fill:rgba(0,0,0,0);}</style></defs><g transform="translate(0.5 0.5)"><path class="a" d="M15804-3187.592q.023-31.331,0-62.662c0-.609.116-.832.729-.717a4.208,4.208,0,0,0,.709.008H15868v63.952h-1.422q-30.99,0-61.981.012C15804.116-3187,15804-3187.11,15804-3187.592Zm60.6-2.19c.653,0,.753-.2.753-.789q-.029-14.241-.016-28.482,0-14.211.016-28.418c0-.641-.115-.856-.82-.856q-28.463.036-56.928,0c-.617,0-.82.1-.82.789q.029,28.482,0,56.963c0,.6.1.789.753.789q14.265-.015,28.529-.015T15864.6-3189.782Zm-48.369-7.65c-1.43,0-1.788-.358-1.788-1.788v-39.66c0-1.434.354-1.792,1.784-1.792h39.68c1.434,0,1.788.354,1.788,1.788v39.66c0,1.434-.354,1.792-1.784,1.792Zm38.3-2.521c.5,0,.649-.112.649-.633q-.012-9.235-.012-18.47t.012-18.47c0-.538-.167-.625-.653-.625q-18.445.018-36.893,0c-.529,0-.681.119-.681.669q.012,9.217.012,18.437t-.012,18.44c0,.55.171.657.685.657q9.212-.024,18.419-.012h6.157Q15848.378-3199.965,15854.536-3199.953Z" transform="translate(-15804 3251)"/><path class="b" d="M15804.6-3186.5h0c-.756,0-1.093-.337-1.093-1.094.017-22.031.015-42.528,0-62.662,0-.309,0-1.247.96-1.247a1.94,1.94,0,0,1,.358.037,1.1,1.1,0,0,0,.181.012c.063,0,.13,0,.2-.006s.157-.006.239-.006h63.063v64.952h-22.347C15832.95-3186.511,15818.777-3186.509,15804.6-3186.5Zm-.091-1,.091,0c14.18-.011,28.353-.012,41.557-.012h21.347v-62.952h-62.062c-.062,0-.128,0-.2.006s-.158.006-.241.006a2.033,2.033,0,0,1-.356-.028h-.006a1.234,1.234,0,0,0-.125-.018,1.892,1.892,0,0,0-.012.244c.02,20.134.021,40.631,0,62.663C15804.5-3187.555,15804.506-3187.525,15804.507-3187.5Zm60.1-1.782c-9.394-.01-18.991-.015-28.529-.015s-19.136.005-28.528.015c-1.1,0-1.254-.619-1.254-1.289.017-19.6.015-38.763,0-56.963,0-1.07.527-1.289,1.32-1.289,10.437.009,19.774.013,28.55.013,10.089,0,19.371-.005,28.377-.017a1.335,1.335,0,0,1,1.052.359,1.452,1.452,0,0,1,.27,1c-.019,7.577-.018,15.283-.017,22.735q0,2.841,0,5.683v4.064c0,8,0,16.278.016,24.416C15865.856-3189.9,15865.705-3189.282,15864.6-3189.282Zm-28.529-1.015c9.538,0,19.137.005,28.53.015a1.289,1.289,0,0,0,.236-.016,1.63,1.63,0,0,0,.016-.272c-.017-8.139-.017-16.414-.016-24.417v-4.064q0-2.841,0-5.683c0-7.453,0-15.159.017-22.736a1.388,1.388,0,0,0-.024-.329,1.136,1.136,0,0,0-.3-.026c-9.006.011-18.289.017-28.378.017-8.775,0-18.114,0-28.55-.013a1.706,1.706,0,0,0-.3.018,1.306,1.306,0,0,0-.021.271c.019,18.2.021,37.366,0,56.964a1.813,1.813,0,0,0,.015.272,1.325,1.325,0,0,0,.238.016C15816.938-3190.292,15826.536-3190.3,15836.074-3190.3Zm19.84-6.635h-39.68c-1.711,0-2.288-.577-2.288-2.288v-39.66c0-1.714.576-2.292,2.284-2.292h39.68a2.447,2.447,0,0,1,1.785.5,2.444,2.444,0,0,1,.5,1.785v39.66C15858.2-3197.51,15857.622-3196.932,15855.914-3196.932Zm-39.684-43.24c-.59,0-.931.067-1.073.211s-.211.488-.211,1.081v39.66c0,.59.067.932.212,1.077s.486.211,1.076.211h39.68c.59,0,.931-.067,1.073-.211s.211-.488.211-1.081v-39.66c0-.592-.066-.935-.21-1.078s-.486-.21-1.078-.21Zm38.306,40.719c-4.181-.011-8.391-.012-12.316-.012h-12.227c-3.923,0-8.134,0-12.349.012-.553,0-1.186-.132-1.186-1.157.008-6.116.012-12.32.012-18.44s0-12.323-.012-18.436c0-.82.354-1.17,1.181-1.17,6.4.008,13.043.012,19.749.012,5.555,0,11.322,0,17.144-.009a1.17,1.17,0,0,1,.882.274,1.153,1.153,0,0,1,.271.854c-.008,6.127-.012,12.341-.012,18.467s0,12.339.012,18.469C15855.686-3199.8,15855.331-3199.453,15854.536-3199.453Zm-12.316-1.012c3.927,0,8.137,0,12.317.012.064,0,.111,0,.144-.005,0-.03,0-.072,0-.128-.008-6.13-.012-12.344-.012-18.47s0-12.34.012-18.471c0-.052,0-.091,0-.12-.034,0-.082,0-.149,0-5.82.006-11.589.009-17.144.009-6.706,0-13.351,0-19.75-.012a1.551,1.551,0,0,0-.172.008,1.427,1.427,0,0,0-.008.161c.008,6.113.012,12.316.012,18.437s0,12.325-.012,18.44a1.237,1.237,0,0,0,.008.149,1.587,1.587,0,0,0,.177.008c4.215-.011,8.426-.012,12.35-.012h12.227Z" transform="translate(-15804 3251)"/></g></svg>