<svg xmlns="http://www.w3.org/2000/svg" width="93.802" height="64" viewBox="0 0 93.802 64"><defs><style>.a{fill:#2babe2;}</style></defs><path class="a" d="M47,2.441a48.506,48.506,0,0,1,28.5,8.9,50.109,50.109,0,0,1,18.3,23.1,50.148,50.148,0,0,1-18.3,23.1,48.494,48.494,0,0,1-28.5,8.9,48.957,48.957,0,0,1-28.6-8.9A49.916,49.916,0,0,1,0,34.441a49.937,49.937,0,0,1,18.4-23.1A48.949,48.949,0,0,1,47,2.441Zm0,53.4a20.266,20.266,0,0,0,15-6.3,20.768,20.768,0,0,0,6.2-15.1,20.768,20.768,0,0,0-6.2-15.1,20.266,20.266,0,0,0-15-6.3,20.592,20.592,0,0,0-15.1,6.3,20.611,20.611,0,0,0-6.3,15.1,20.584,20.584,0,0,0,6.3,15.1A20.6,20.6,0,0,0,47,55.842Zm-.1-34.2a12.583,12.583,0,0,1,9.1,3.7,12.2,12.2,0,0,1,3.8,9.1,12.2,12.2,0,0,1-3.8,9.1,12.583,12.583,0,0,1-9.1,3.7,12.25,12.25,0,0,1-9-3.7,12.377,12.377,0,0,1-3.7-9.1,12.635,12.635,0,0,1,12.7-12.8Z" transform="translate(0 -2.441)"/></svg>