<svg xmlns="http://www.w3.org/2000/svg" xmlns:xlink="http://www.w3.org/1999/xlink" width="32" height="18.551" viewBox="0 0 32 18.551"><defs><style>.a{fill:url(#a);}.b{fill:url(#b);}.c{fill:url(#c);}.d{fill:url(#d);}.e{fill:url(#e);}.f{fill:url(#f);}.g{fill:url(#g);}.h{fill:url(#h);}.i{fill:url(#i);}.j{fill:url(#j);}.k{fill:url(#k);}.l{fill:url(#l);}.m{fill:url(#m);}.n{fill:url(#n);}.o{fill:#2babe2;}.p{fill:url(#o);}.q{fill:url(#p);}</style><linearGradient id="a" x1="-0.262" y1="0.186" x2="1.501" y2="1.045" gradientUnits="objectBoundingBox"><stop offset="0" stop-color="#042c3a"/><stop offset="0.43" stop-color="#005379"/><stop offset="0.72" stop-color="#2babe2"/><stop offset="0.89" stop-color="#5ec3eb"/><stop offset="1" stop-color="#8dd2ee"/></linearGradient><linearGradient id="b" x1="0.5" y1="1.619" x2="0.5" y2="-1.23" gradientUnits="objectBoundingBox"><stop offset="0" stop-color="#042c3a"/><stop offset="0.43" stop-color="#005379"/><stop offset="0.66" stop-color="#2babe2"/><stop offset="0.89" stop-color="#5ec3eb"/><stop offset="1" stop-color="#8dd2ee"/></linearGradient><linearGradient id="c" x1="0.5" y1="1.624" x2="0.5" y2="-1.244" xlink:href="#b"/><linearGradient id="d" x1="0.5" y1="12.131" x2="0.5" y2="-6.87" xlink:href="#b"/><linearGradient id="e" x1="0.5" y1="12.105" x2="0.5" y2="-6.857" xlink:href="#b"/><linearGradient id="f" x1="0.5" y1="11.913" x2="0.5" y2="-6.747" xlink:href="#b"/><linearGradient id="g" x1="0.5" y1="11.772" x2="0.5" y2="-6.648" xlink:href="#b"/><linearGradient id="h" x1="0.5" y1="12.128" x2="0.5" y2="-6.868" xlink:href="#b"/><linearGradient id="i" x1="0.5" y1="12.115" x2="0.5" y2="-6.859" xlink:href="#b"/><linearGradient id="j" x1="0.5" y1="12.136" x2="0.5" y2="-6.873" xlink:href="#b"/><linearGradient id="k" x1="0.5" y1="12.128" x2="0.5" y2="-6.868" xlink:href="#b"/><linearGradient id="l" x1="0.5" y1="11.772" x2="0.5" y2="-6.648" xlink:href="#b"/><linearGradient id="m" x1="-0.431" y1="0.251" x2="2.76" y2="1.029" gradientUnits="objectBoundingBox"><stop offset="0" stop-color="#042c3a"/><stop offset="0.03" stop-color="#03384e"/><stop offset="0.08" stop-color="#024461"/><stop offset="0.14" stop-color="#014d6f"/><stop offset="0.21" stop-color="#005277"/><stop offset="0.33" stop-color="#005379"/><stop offset="0.66" stop-color="#2babe2"/><stop offset="0.89" stop-color="#5ec3eb"/><stop offset="1" stop-color="#8dd2ee"/></linearGradient><linearGradient id="n" x1="1.009" y1="1.181" x2="-0.151" y2="-0.469" gradientUnits="objectBoundingBox"><stop offset="0" stop-color="#042c3a"/><stop offset="0.07" stop-color="#033a51"/><stop offset="0.14" stop-color="#014563"/><stop offset="0.23" stop-color="#014d70"/><stop offset="0.35" stop-color="#005277"/><stop offset="0.62" stop-color="#005379"/><stop offset="0.98" stop-color="#2babe2"/></linearGradient><linearGradient id="o" x1="0.5" y1="19.557" x2="0.5" y2="-8.781" gradientUnits="objectBoundingBox"><stop offset="0" stop-color="#042c3a"/><stop offset="0.43" stop-color="#005379"/><stop offset="0.66" stop-color="#2eaae2"/><stop offset="0.89" stop-color="#5ec3eb"/><stop offset="1" stop-color="#8dd2ee"/></linearGradient><linearGradient id="p" x1="0.5" y1="1.698" x2="0.5" y2="-0.966" xlink:href="#o"/></defs><path class="a" d="M31.5,24.234a6.115,6.115,0,0,1,.315,2.638,7.224,7.224,0,0,1-3.259,5.023,5.515,5.515,0,0,0,1.612-3.355c.011-.122.019-.245.019-.368a5.6,5.6,0,0,0-.309-1.906.359.359,0,0,1,0,.058c-.392,4.387-6.255,7.177-13.542,6.716a.031.031,0,0,1-.017,0c-.137-.016-.276-.035-.414-.056C8.2,31.8,2.3,26.972,2.727,22.184A5.734,5.734,0,0,1,4.38,18.7c-.249.117-.491.243-.724.374A6.385,6.385,0,0,0,.043,23.944a.327.327,0,0,0,0,.055c-.315,4.018,4.05,8.1,10.3,10.083l.025.008c.121.039.242.076.365.113a24.846,24.846,0,0,0,3.559.8h.057c.288.042.577.081.87.113a23.46,23.46,0,0,0,6.146-.053l.237-.032.137-.022c5.645-.878,9.835-3.8,10.253-7.666a6.225,6.225,0,0,0-.5-3.11Z" transform="translate(-0.027 -16.743)"/><path class="b" d="M77.327,44.548v-.005h.06V42h2.049l2.575,2.546h4.594l-3.069-3.06a3.834,3.834,0,0,0-1.94-7.223l-6.257-.021-.016,8.8-.482.487a18.226,18.226,0,0,0,1.81,1.025Zm.078-6.683h4.172a.42.42,0,0,1,.42.419v.183a.42.42,0,0,1-.42.419H77.4Z" transform="translate(-66.976 -30.657)"/><path class="c" d="M166.444,38.71c0,.069,0,.139-.006.209a4.154,4.154,0,0,1-.06.514,3.964,3.964,0,0,1-.347,1.029,4.169,4.169,0,0,1-.294.5,4.658,4.658,0,0,1-1.067,1.095l2.873,2.864a14.514,14.514,0,0,0,1.892.115c3.805,0,6.243-1.174,6.7-4.075h-4.178c-.413.594-1.276.769-2.513.769s-2.1-.176-2.511-.769a1.469,1.469,0,0,1-.221-.5,2.292,2.292,0,0,1-.062-.548,2.414,2.414,0,0,1,.045-.48,1.5,1.5,0,0,1,.2-.514c.4-.636,1.275-.825,2.544-.825s2.15.186,2.549.825h4.16c-.436-2.94-2.881-4.13-6.709-4.13a9.942,9.942,0,0,0-4.266.772A4.256,4.256,0,0,1,166.444,38.71Z" transform="translate(-147.364 -31.15)"/><path class="d" d="M79.968,15.249l.583.845h.46V14.52h-.479v.793l-.55-.793H79.49v1.575h.478Z" transform="translate(-71.137 -13.001)"/><path class="e" d="M97.666,15.312a.775.775,0,0,0-.864-.782h-.7V16.1h.705A.781.781,0,0,0,97.666,15.312Zm-1.09.371v-.741h.229a.343.343,0,0,1,.377.369.363.363,0,0,1-.381.371Z" transform="translate(-86.001 -13.01)"/><path class="f" d="M113.147,16.095c.526,0,.745-.281.745-.665V14.52h-.477v.895a.269.269,0,0,1-.538,0V14.52H112.4v.911C112.4,15.813,112.623,16.095,113.147,16.095Z" transform="translate(-100.588 -13.001)"/><path class="g" d="M128.6,15.536a.723.723,0,0,1-.5-.2l-.245.348a1.033,1.033,0,0,0,.722.246c.42,0,.671-.2.671-.539,0-.357-.379-.431-.631-.475-.165-.027-.228-.048-.228-.1,0-.04.026-.081.142-.081a.774.774,0,0,1,.434.153l.251-.332a1.03,1.03,0,0,0-.659-.216c-.427,0-.645.239-.645.5,0,.387.391.447.647.493.153.028.219.059.219.118S128.685,15.536,128.6,15.536Z" transform="translate(-114.414 -12.836)"/><path class="h" d="M142.177,16.095h.47V14.928h.415V14.52h-1.3v.408h.417Z" transform="translate(-126.862 -13.001)"/><path class="i" d="M156.236,15.574h.173l.217.505h.546l-.287-.558a.505.505,0,0,0,.285-.476.525.525,0,0,0-.569-.541h-.841v1.575h.478Zm0-.673h.292a.139.139,0,1,1,0,.276h-.292Z" transform="translate(-139.39 -12.985)"/><rect class="j" width="0.471" height="1.574" transform="translate(17.945 1.519)"/><path class="k" d="M176.453,14.52l-.583,1.575h.519l.062-.2h.607l.062.2h.519l-.583-1.57Zm.121.975.181-.555.18.555Z" transform="translate(-157.387 -13.001)"/><path class="l" d="M192.955,15.536a.723.723,0,0,1-.5-.2l-.245.348a1.03,1.03,0,0,0,.722.246c.42,0,.671-.2.671-.539,0-.357-.379-.431-.636-.475-.165-.027-.228-.048-.228-.1,0-.04.025-.081.142-.081a.767.767,0,0,1,.433.153l.252-.332a1.032,1.032,0,0,0-.659-.216c-.427,0-.645.239-.645.5,0,.387.391.447.647.493.153.028.219.059.219.118S193.044,15.536,192.955,15.536Z" transform="translate(-172.009 -12.836)"/><path class="m" d="M3.783,19.074A6.385,6.385,0,0,0,.17,23.944.327.327,0,0,0,.17,24c1.023,3.1,4.6,5.995,9.376,7.657a26.385,26.385,0,0,0,4.617,1.135q1.164.176,2.286.245c-.137-.016-.276-.035-.414-.057C8.326,31.8,2.426,26.972,2.854,22.184A5.736,5.736,0,0,1,4.507,18.7Z" transform="translate(-0.154 -16.743)"/><path class="n" d="M20.034,6.371a5.748,5.748,0,0,0-1.653,3.484c-.428,4.787,5.472,9.62,13.178,10.8.138.022.278.041.414.057a.031.031,0,0,0,.017,0c7.286.465,13.15-2.325,13.541-6.713a.359.359,0,0,0,0-.058C45.8,10.549,42.729,7.111,38,4.93a22.486,22.486,0,0,1,3.83,1.733c3.769,2.183,6.1,5.21,5.827,8.192a6.388,6.388,0,0,1-3.618,4.877c-2.943,1.653-7.375,2.33-12.227,1.59a25.372,25.372,0,0,1-6.749-1.994c-4.753-2.2-7.832-5.66-7.525-9.069a5.57,5.57,0,0,1,1.765-3.515Z" transform="translate(-15.681 -4.414)"/><path class="o" d="M118.756,9.91h-.281l-.225.321h.281Z" transform="translate(-105.823 -8.873)"/><path class="p" d="M55.09,1.037h2.065V.852A.854.854,0,0,0,56.3,0H55.09Z" transform="translate(-49.302)"/><path class="q" d="M55.09,14.52v6.459L55.1,24.27a17.887,17.887,0,0,0,1.64,1.313l.412-.409V14.52Z" transform="translate(-49.302 -13.001)"/></svg>