<svg xmlns="http://www.w3.org/2000/svg" width="13.714" height="16" viewBox="0 0 13.714 16"><defs><style>.a{fill:#005379;}</style></defs><path class="a" d="M13.107,3.393a2.074,2.074,0,0,1,.428.679,2.071,2.071,0,0,1,.179.786V15.143a.854.854,0,0,1-.857.857h-12a.826.826,0,0,1-.607-.25A.829.829,0,0,1,0,15.143V.857A.826.826,0,0,1,.25.25.829.829,0,0,1,.857,0h8a2.06,2.06,0,0,1,.786.179,2.084,2.084,0,0,1,.679.428ZM9.142,1.214V4.571H12.5a.976.976,0,0,0-.2-.366L9.509,1.411a.976.976,0,0,0-.366-.2Zm3.428,13.642V5.714H8.857A.854.854,0,0,1,8,4.857V1.143H1.143V14.856H12.571ZM7.982,9.562a6.815,6.815,0,0,0,.75.5A8.833,8.833,0,0,1,9.776,10q1.312,0,1.58.437a.432.432,0,0,1,.018.464.026.026,0,0,1-.009.018l-.018.018v.009q-.054.339-.634.339a3.681,3.681,0,0,1-1.027-.179,6.518,6.518,0,0,1-1.161-.473,16.078,16.078,0,0,0-3.5.741Q3.66,13.713,2.866,13.713a.52.52,0,0,1-.25-.063L2.4,13.543q-.009-.009-.054-.044a.369.369,0,0,1-.054-.321,1.938,1.938,0,0,1,.5-.817A4.323,4.323,0,0,1,3.972,11.5a.13.13,0,0,1,.205.054.051.051,0,0,1,.018.036q.464-.759.956-1.759A13.62,13.62,0,0,0,6.079,7.49a7.227,7.227,0,0,1-.272-1.424,3.434,3.434,0,0,1,.059-1.137q.1-.357.375-.357h.2A.377.377,0,0,1,6.75,4.7a.712.712,0,0,1,.08.607.193.193,0,0,1-.036.072.233.233,0,0,1,.009.072v.268a11.688,11.688,0,0,1-.125,1.714,4.516,4.516,0,0,0,1.3,2.125Zm-5.143,3.67a3.939,3.939,0,0,0,1.223-1.411,5.087,5.087,0,0,0-.781.75,2.965,2.965,0,0,0-.442.661ZM6.393,5.018A2.658,2.658,0,0,0,6.375,6.2q.009-.063.063-.393,0-.027.063-.384a.2.2,0,0,1,.036-.072.026.026,0,0,1-.009-.018A.068.068,0,0,1,6.518,5.3.514.514,0,0,0,6.4,4.982.026.026,0,0,1,6.393,5v.018Zm-1.107,5.9A13.083,13.083,0,0,1,7.821,10.2a1.349,1.349,0,0,1-.116-.085,1.6,1.6,0,0,1-.143-.12A4.726,4.726,0,0,1,6.429,8.419a11.911,11.911,0,0,1-.741,1.759q-.268.5-.4.741Zm5.768-.143a2.138,2.138,0,0,0-1.25-.214,3.375,3.375,0,0,0,1.107.25.873.873,0,0,0,.161-.009q0-.009-.018-.027Z"/></svg>