<svg xmlns="http://www.w3.org/2000/svg" xmlns:xlink="http://www.w3.org/1999/xlink" width="204" height="204" viewBox="0 0 204 204"><defs><style>.a{fill:none;}.b{clip-path:url(#a);}.c{fill:#e6e6e6;}</style><clipPath id="a"><rect class="a" width="204" height="204"/></clipPath></defs><g class="b"><g transform="translate(-274 -1212)"><rect class="c" width="5" height="5" transform="translate(274 1212)"/></g><g transform="translate(-246 -1212)"><rect class="c" width="5" height="5" transform="translate(274 1212)"/></g><g transform="translate(-218 -1212)"><rect class="c" width="5" height="5" transform="translate(274 1212)"/></g><g transform="translate(-190 -1212)"><rect class="c" width="5" height="5" transform="translate(274 1212)"/></g><g transform="translate(-162 -1212)"><rect class="c" width="5" height="5" transform="translate(274 1212)"/></g><g transform="translate(-134 -1212)"><rect class="c" width="5" height="5" transform="translate(274 1212)"/></g><g transform="translate(-106 -1212)"><rect class="c" width="5" height="5" transform="translate(274 1212)"/></g><g transform="translate(-78 -1212)"><rect class="c" width="5" height="5" transform="translate(274 1212)"/></g><g transform="translate(-274 -1184)"><rect class="c" width="5" height="5" transform="translate(274 1212)"/></g><g transform="translate(-246 -1184)"><rect class="c" width="5" height="5" transform="translate(274 1212)"/></g><g transform="translate(-218 -1184)"><rect class="c" width="5" height="5" transform="translate(274 1212)"/></g><g transform="translate(-190 -1184)"><rect class="c" width="5" height="5" transform="translate(274 1212)"/></g><g transform="translate(-162 -1184)"><rect class="c" width="5" height="5" transform="translate(274 1212)"/></g><g transform="translate(-134 -1184)"><rect class="c" width="5" height="5" transform="translate(274 1212)"/></g><g transform="translate(-106 -1184)"><rect class="c" width="5" height="5" transform="translate(274 1212)"/></g><g transform="translate(-78 -1184)"><rect class="c" width="5" height="5" transform="translate(274 1212)"/></g><g transform="translate(-274 -1156)"><rect class="c" width="5" height="5" transform="translate(274 1212)"/></g><g transform="translate(-246 -1156)"><rect class="c" width="5" height="5" transform="translate(274 1212)"/></g><g transform="translate(-218 -1156)"><rect class="c" width="5" height="5" transform="translate(274 1212)"/></g><g transform="translate(-190 -1156)"><rect class="c" width="5" height="5" transform="translate(274 1212)"/></g><g transform="translate(-162 -1156)"><rect class="c" width="5" height="5" transform="translate(274 1212)"/></g><g transform="translate(-134 -1156)"><rect class="c" width="5" height="5" transform="translate(274 1212)"/></g><g transform="translate(-106 -1156)"><rect class="c" width="5" height="5" transform="translate(274 1212)"/></g><g transform="translate(-78 -1156)"><rect class="c" width="5" height="5" transform="translate(274 1212)"/></g><g transform="translate(-274 -1128)"><rect class="c" width="5" height="5" transform="translate(274 1212)"/></g><g transform="translate(-246 -1128)"><rect class="c" width="5" height="5" transform="translate(274 1212)"/></g><g transform="translate(-218 -1128)"><rect class="c" width="5" height="5" transform="translate(274 1212)"/></g><g transform="translate(-190 -1128)"><rect class="c" width="5" height="5" transform="translate(274 1212)"/></g><g transform="translate(-162 -1128)"><rect class="c" width="5" height="5" transform="translate(274 1212)"/></g><g transform="translate(-134 -1128)"><rect class="c" width="5" height="5" transform="translate(274 1212)"/></g><g transform="translate(-106 -1128)"><rect class="c" width="5" height="5" transform="translate(274 1212)"/></g><g transform="translate(-78 -1128)"><rect class="c" width="5" height="5" transform="translate(274 1212)"/></g><g transform="translate(-274 -1100)"><rect class="c" width="5" height="5" transform="translate(274 1212)"/></g><g transform="translate(-246 -1100)"><rect class="c" width="5" height="5" transform="translate(274 1212)"/></g><g transform="translate(-218 -1100)"><rect class="c" width="5" height="5" transform="translate(274 1212)"/></g><g transform="translate(-190 -1100)"><rect class="c" width="5" height="5" transform="translate(274 1212)"/></g><g transform="translate(-162 -1100)"><rect class="c" width="5" height="5" transform="translate(274 1212)"/></g><g transform="translate(-134 -1100)"><rect class="c" width="5" height="5" transform="translate(274 1212)"/></g><g transform="translate(-106 -1100)"><rect class="c" width="5" height="5" transform="translate(274 1212)"/></g><g transform="translate(-78 -1100)"><rect class="c" width="5" height="5" transform="translate(274 1212)"/></g><g transform="translate(-274 -1072)"><rect class="c" width="5" height="5" transform="translate(274 1212)"/></g><g transform="translate(-246 -1072)"><rect class="c" width="5" height="5" transform="translate(274 1212)"/></g><g transform="translate(-218 -1072)"><rect class="c" width="5" height="5" transform="translate(274 1212)"/></g><g transform="translate(-190 -1072)"><rect class="c" width="5" height="5" transform="translate(274 1212)"/></g><g transform="translate(-162 -1072)"><rect class="c" width="5" height="5" transform="translate(274 1212)"/></g><g transform="translate(-134 -1072)"><rect class="c" width="5" height="5" transform="translate(274 1212)"/></g><g transform="translate(-106 -1072)"><rect class="c" width="5" height="5" transform="translate(274 1212)"/></g><g transform="translate(-78 -1072)"><rect class="c" width="5" height="5" transform="translate(274 1212)"/></g><g transform="translate(-274 -1044)"><rect class="c" width="5" height="5" transform="translate(274 1212)"/></g><g transform="translate(-246 -1044)"><rect class="c" width="5" height="5" transform="translate(274 1212)"/></g><g transform="translate(-218 -1044)"><rect class="c" width="5" height="5" transform="translate(274 1212)"/></g><g transform="translate(-190 -1044)"><rect class="c" width="5" height="5" transform="translate(274 1212)"/></g><g transform="translate(-162 -1044)"><rect class="c" width="5" height="5" transform="translate(274 1212)"/></g><g transform="translate(-134 -1044)"><rect class="c" width="5" height="5" transform="translate(274 1212)"/></g><g transform="translate(-106 -1044)"><rect class="c" width="5" height="5" transform="translate(274 1212)"/></g><g transform="translate(-78 -1044)"><rect class="c" width="5" height="5" transform="translate(274 1212)"/></g><g transform="translate(-274 -1016)"><rect class="c" width="5" height="5" transform="translate(274 1212)"/></g><g transform="translate(-246 -1016)"><rect class="c" width="5" height="5" transform="translate(274 1212)"/></g><g transform="translate(-218 -1016)"><rect class="c" width="5" height="5" transform="translate(274 1212)"/></g><g transform="translate(-190 -1016)"><rect class="c" width="5" height="5" transform="translate(274 1212)"/></g><g transform="translate(-162 -1016)"><rect class="c" width="5" height="5" transform="translate(274 1212)"/></g><g transform="translate(-134 -1016)"><rect class="c" width="5" height="5" transform="translate(274 1212)"/></g><g transform="translate(-106 -1016)"><rect class="c" width="5" height="5" transform="translate(274 1212)"/></g><g transform="translate(-78 -1016)"><rect class="c" width="5" height="5" transform="translate(274 1212)"/></g></g></svg>