<svg xmlns="http://www.w3.org/2000/svg" width="22.618" height="18" viewBox="0 0 22.618 18"><defs><style>.a{fill:#fff;}</style></defs><path class="a" d="M19.951,10.995v6.734a.91.91,0,0,1-.9.9H13.665V13.24H10.074v5.387H4.687a.91.91,0,0,1-.9-.9V10.995a.187.187,0,0,1,.007-.042A.187.187,0,0,0,3.8,10.91L11.87,4.26l8.067,6.65a.192.192,0,0,1,.014.084Zm3.129-.968-.87,1.038a.476.476,0,0,1-.294.154h-.042a.432.432,0,0,1-.294-.1L11.87,3.026,2.162,11.121a.521.521,0,0,1-.337.1.476.476,0,0,1-.294-.154l-.87-1.038a.453.453,0,0,1-.1-.329.41.41,0,0,1,.153-.3L10.8.992a1.739,1.739,0,0,1,2.132,0l3.423,2.862V1.119a.433.433,0,0,1,.449-.449H19.5a.433.433,0,0,1,.449.449V6.843L23.024,9.4a.408.408,0,0,1,.154.3.453.453,0,0,1-.1.329Z" transform="translate(-0.562 -0.627)"/></svg>