<svg xmlns="http://www.w3.org/2000/svg" xmlns:xlink="http://www.w3.org/1999/xlink" width="64" height="64" viewBox="0 0 64 64"><defs><style>.a{fill:#2babe2;}.b{clip-path:url(#a);}</style><clipPath id="a"><rect class="a" width="64" height="64"/></clipPath></defs><g class="b"><path class="a" d="M42.332,57.561c.335-.334.543-.514.7-.52-.98.983-1.9,1.911-2.828,2.838q-1.767,1.77-3.537,3.537c-.662.656-1.106.662-1.755.013q-5.351-5.345-10.694-10.7c-.658-.66-.648-1.08.023-1.754,1.351-1.361,2.7-2.725,4.067-4.066a.885.885,0,0,0,.281-1.208,32.37,32.37,0,0,1-1.069-3.579c-.2-.673-.167-1.534-.667-1.962a5.271,5.271,0,0,0-1.932-.622c-1.079-.306-2.155-.624-3.241-.9a1.477,1.477,0,0,1-1.148-1.164c-.353-1.325-.743-2.642-1.118-3.961-.018-.059-.043-.117-.066-.184-.233.074-.353.278-.509.434q-2.9,2.891-5.79,5.792c-.808.809-1.189.814-1.978.024Q5.827,34.331.592,29.088C-.2,28.295-.2,27.907.6,27.107Q13.838,13.862,27.075.617c.216-.214.449-.411.674-.617.053.212-.129.288-.239.4Q14.221,13.672.955,26.97C-.088,28.012-.089,28.155.933,29.179L11.007,39.26c.147.147.288.3.449.434a.789.789,0,0,0,1.219-.008c.495-.445.95-.935,1.421-1.406q2.212-2.21,4.419-4.421c.118-.119.232-.241.357-.351.432-.376.6-.334.772.232.318,1.036.588,2.085.88,3.129.056.2.128.4.179.6a1.313,1.313,0,0,0,1.006,1c1.5.434,3,.883,4.513,1.26a1.374,1.374,0,0,1,1.105,1.106,42.57,42.57,0,0,0,1.317,4.5,1.58,1.58,0,0,1-.529,2.026c-1.252,1.16-2.431,2.4-3.635,3.613-.734.739-.738,1.036-.009,1.766Q29.68,57.953,34.9,63.169c.745.745,1.069.752,1.822.005,1.878-1.865,3.742-3.743,5.614-5.613" transform="translate(0)"/><path class="a" d="M364.813,412.99c-.2.234-.387.484-.6.7-3.636,3.644-7.283,7.276-10.9,10.935a1.568,1.568,0,0,1-1.779.469c-1.725-.535-3.467-1.018-5.212-1.485a1.6,1.6,0,0,1-1.263-1.283c-.341-1.343-.747-2.67-1.15-4.084.155.044.254.306.4.81.316,1.124.644,2.243.961,3.367a1.367,1.367,0,0,0,1.061,1.018c1.748.477,3.494.961,5.225,1.5a1.427,1.427,0,0,0,1.615-.425c3.725-3.759,7.477-7.491,11.214-11.239.123-.124.2-.335.441-.286" transform="translate(-300.813 -361.198)"/><path class="a" d="M237.734,12.633a.79.79,0,0,0-.008-1.129c-.148-.176-.314-.334-.476-.5Q231.943,5.707,226.643.4c-.112-.109-.291-.188-.238-.4.293.26.6.507.876.782q5.131,5.125,10.254,10.258c.828.83.828,1.194,0,2.024l-6.271,6.27c-.024-.172.2-.411.646-.855q2.695-2.7,5.391-5.4c.147-.147.3-.291.432-.45" transform="translate(-198.03)"/><path class="a" d="M288.833,175.844c-.454.415-.608.43-1.047-.008q-4.475-4.456-8.926-8.932c-.447-.45-.444-.574.009-1.031,1.5-1.51,3.006-3.006,4.5-4.515a.6.6,0,0,1,1-.008q4.48,4.5,8.968,8.978a.608.608,0,0,1,0,1.011,2.493,2.493,0,0,0-.588.725.716.716,0,0,0,.128.866.663.663,0,0,0,.857.15,6.04,6.04,0,0,0,1.921-1.927.624.624,0,0,0-.059-.708,3.566,3.566,0,0,0-.417-.464L284.8,159.59c-.074-.073-.147-.148-.224-.218-.545-.494-.89-.493-1.451.058-1.13,1.11-2.241,2.238-3.363,3.357-.338.339-.67.685-1.021,1.012a.586.586,0,0,1-.677.162,47.358,47.358,0,0,0-4.905-1.46,1.735,1.735,0,0,1-1.473-1.443c-.267-1.283-.732-2.523-1.032-3.8a1.945,1.945,0,0,0-1.629-1.643c-.915-.2-1.813-.473-2.713-.737-.63-.184-.953-.288-1.006-.458,1.411.4,2.743.806,4.09,1.15a1.629,1.629,0,0,1,1.307,1.314c.388,1.53.857,3.039,1.263,4.566a.93.93,0,0,0,.753.762c1.527.4,3.041.845,4.559,1.274a.866.866,0,0,1,.294.1c.685.535,1.084.107,1.55-.38,1.254-1.308,2.552-2.576,3.838-3.855.739-.736,1.11-.739,1.838-.011q5.305,5.3,10.6,10.613c.7.7.694,1.132-.015,1.848-.41.415-.812.839-1.242,1.234a.949.949,0,1,1-1.328-1.347c.244-.278.709-.553.7-.818-.01-.376-.5-.618-.792-.91-2.808-2.82-5.632-5.626-8.426-8.46-.36-.364-.526-.313-.851.018q-2.2,2.259-4.463,4.466c-.315.307-.377.46-.024.809q4.51,4.463,8.971,8.976c.331.335.516.367.816,0a6.6,6.6,0,0,1,.887-.878.933.933,0,0,1,1.3,1.335c-.555.563-1.148,1.09-1.8,1.687a3.084,3.084,0,0,1,.336-.386c.38-.387.768-.765,1.146-1.152a1.248,1.248,0,0,0,.365-.573.764.764,0,0,0-.257-.843.7.7,0,0,0-.818-.05,5.327,5.327,0,0,0-1.079.94" transform="translate(-232.061 -135.057)"/><path class="a" d="M461.924,351.97c-.333-.016-.288-.313-.346-.5-.495-1.658-.989-3.315-1.423-4.989a1.553,1.553,0,0,0-1.223-1.25c-1.11-.283-2.206-.619-3.306-.935-.434-.124-.66-.219-.7-.361,1.488.423,2.788.818,4.1,1.152a1.606,1.606,0,0,1,1.267,1.279c.476,1.786,1,3.561,1.5,5.339a1.609,1.609,0,0,0,.129.27" transform="translate(-397.923 -300.804)"/><path class="a" d="M63.871,50.9c-.506-1.778-1.027-3.554-1.5-5.339A1.606,1.606,0,0,0,61.1,44.278c-1.316-.335-2.615-.73-4.1-1.152l-.165-.048c.081-.076.164-.153.244-.224l0,0c.648-.6,1.24-1.124,1.8-1.687a.933.933,0,0,0-1.3-1.335,6.6,6.6,0,0,0-.887.878c-.3.369-.485.336-.816,0Q51.407,36.2,46.9,31.733c-.353-.349-.291-.5.024-.809q2.257-2.208,4.463-4.466c.325-.331.491-.381.851-.018,2.794,2.834,5.618,5.64,8.426,8.46.292.292.782.534.792.91.008.265-.457.539-.7.818a.949.949,0,1,0,1.328,1.347c.43-.395.832-.819,1.242-1.234.709-.716.717-1.146.015-1.848q-5.3-5.31-10.6-10.613c-.728-.727-1.1-.725-1.838.011-1.285,1.279-2.583,2.547-3.838,3.855-.466.487-.865.915-1.55.38a.866.866,0,0,0-.294-.1c-1.519-.429-3.032-.876-4.559-1.274a.93.93,0,0,1-.753-.762c-.406-1.526-.875-3.036-1.263-4.566a1.629,1.629,0,0,0-1.307-1.314c-1.347-.344-2.679-.75-4.09-1.15l-.028-.008.021-.021,6.271-6.27c.828-.83.828-1.194,0-2.024Q34.379,5.91,29.25.782C28.973.507,28.668.26,28.374,0h-.625c-.226.206-.459.4-.674.617Q13.837,13.86.6,27.107c-.8.8-.8,1.187-.009,1.981Q5.828,34.33,11.067,39.571c.789.79,1.17.785,1.978-.024q2.894-2.9,5.79-5.792c.155-.155.276-.36.509-.434.024.068.049.125.066.184.375,1.319.764,2.636,1.118,3.961a1.477,1.477,0,0,0,1.148,1.164c1.086.28,2.163.6,3.241.9a5.271,5.271,0,0,1,1.932.622c.5.429.469,1.289.667,1.962A32.37,32.37,0,0,0,28.584,45.7a.885.885,0,0,1-.281,1.208c-1.368,1.342-2.716,2.706-4.067,4.066-.67.675-.68,1.095-.023,1.754q5.341,5.355,10.694,10.7c.649.65,1.094.643,1.755-.013q1.774-1.762,3.537-3.537c.926-.927,1.848-1.855,2.828-2.838L43.072,57l.015.051c.4,1.414.809,2.741,1.15,4.084A1.6,1.6,0,0,0,45.5,62.414c1.745.466,3.487.949,5.212,1.485a1.568,1.568,0,0,0,1.779-.469c3.621-3.659,7.268-7.292,10.9-10.935.217-.218.4-.468.6-.7v-.626a1.611,1.611,0,0,1-.129-.27M51.407,61.828a.47.47,0,0,1-.549.117c-.971-.287-1.95-.553-3.1-.874l9.525-5.285.068.1q-2.977,2.972-5.948,5.947M45.885,59.94c-.386-1.362-.759-2.7-1.143-4.028-.108-.37.192-.406.392-.518q4.6-2.558,9.205-5.112c1.98-1.1,3.968-2.181,5.934-3.3.4-.224.494-.124.594.253q.449,1.687.945,3.359c.09.3.084.476-.232.651-5.217,2.88-10.427,5.774-15.7,8.7M58.83,45.619l-9.436,5.235c0-.272.17-.342.273-.446,1.789-1.8,3.588-3.585,5.37-5.391a.722.722,0,0,1,.853-.245c.923.3,1.864.542,2.939.846M40.793,56.592c-1.586,1.592-3.18,3.177-4.759,4.777-.228.232-.348.172-.543-.024q-4.606-4.621-9.226-9.228c-.223-.222-.177-.34.019-.535q2.392-2.376,4.764-4.771c.218-.221.338-.186.537.014q4.6,4.623,9.219,9.236c.071.071.138.15.192.209.01.182-.122.238-.2.321M26.519,38.035c-.756-.28-1.549-.458-2.327-.68,0-.229.208-.245.34-.317Q31.773,33.015,39.017,29a1.007,1.007,0,0,1,.871-.107c.987.307,1.986.574,3.115.9C38.11,32.5,33.345,35.121,28.609,37.8a2.279,2.279,0,0,1-2.09.239m-5.131-6.391q4.167-2.315,8.334-4.627c2.27-1.259,4.547-2.507,6.807-3.783.371-.209.49-.167.6.238q.445,1.685.953,3.355a.493.493,0,0,1-.278.69q-7.636,4.217-15.259,8.455c-.091.05-.183.1-.289.155-.143.036-.14-.1-.165-.183-.362-1.258-.717-2.518-1.083-3.774-.105-.361.178-.413.383-.527m-7.734-2.757q1.453,1.465,2.916,2.92c.764.765.764.765-.021,1.551-1.384,1.386-2.778,2.762-4.147,4.163-.288.3-.436.286-.724,0q-4.51-4.55-9.056-9.067c-.263-.262-.3-.4-.014-.68q2.342-2.3,4.638-4.643c.284-.29.425-.247.679.019.793.826,1.614,1.628,2.426,2.436a.934.934,0,0,0,1.136.236.854.854,0,0,0,.522-.845,1.059,1.059,0,0,0-.41-.814c-.779-.784-1.55-1.575-2.345-2.34-.262-.251-.313-.39-.023-.68q5.959-5.93,11.886-11.895c.279-.281.413-.257.679.01q4.537,4.569,9.1,9.11c.246.243.268.376.01.633q-5.978,5.959-11.93,11.941c-.266.267-.4.218-.633-.021-1.094-1.117-2.2-2.216-3.309-3.32a1.043,1.043,0,0,0-.991-.405.922.922,0,0,0-.714.627.966.966,0,0,0,.323,1.067m17.1,15.571c-.355.356-.5.406-.64-.149-.355-1.366-.749-2.722-1.149-4.078-.08-.273-.106-.43.194-.6Q36.086,35.819,43,31.979c0,.058,0,.115,0,.173-.8.815-1.6,1.635-2.407,2.444q-4.922,4.932-9.843,9.862m4.343-22.587-9.236,5.116c-.036-.055-.071-.11-.106-.166,1.631-1.63,3.321-3.206,4.87-4.912a1.91,1.91,0,0,1,2.495-.631,16.132,16.132,0,0,0,1.978.592M28.41,2.608Q32.948,7.171,37.5,11.72c.1.1.192.212.3.335-.094.105-.172.2-.258.286-1.575,1.577-3.156,3.147-4.72,4.736-.249.253-.376.187-.588-.026Q27.677,12.467,23.095,7.9c-.251-.25-.252-.385,0-.634q2.359-2.325,4.681-4.687c.269-.275.4-.206.633.028m14.283,52.1c-.3.3-.422.149-.631-.06Q37.538,50.111,33,45.59c-.336-.332-.244-.484.036-.762q4.7-4.674,9.376-9.371c.824-.825,1.661-1.639,2.468-2.481.249-.26.377-.246.625,0q4.561,4.591,9.142,9.16c.086.088.168.181.274.3-.1.105-.173.2-.257.281Q48.673,48.71,42.693,54.71" transform="translate(0)"/><path class="a" d="M343.2,255.2c0-.058,0-.115,0-.173a.115.115,0,0,1,0,.173" transform="translate(-300.201 -223.051)"/><path class="a" d="M343.579,253.27c-.113.216-.2.339-.378.394,0-.058,0-.115,0-.173.056-.129.187-.137.377-.221" transform="translate(-300.201 -221.512)"/></g></svg>