<svg xmlns="http://www.w3.org/2000/svg" xmlns:xlink="http://www.w3.org/1999/xlink" width="138" height="80" viewBox="0 0 138 80"><defs><style>.a{fill:url(#a);}.b{fill:url(#b);}.c{fill:url(#c);}.d{fill:url(#d);}.e{fill:url(#e);}.f{fill:url(#f);}.g{fill:url(#g);}.h{fill:url(#h);}.i{fill:url(#i);}.j{fill:url(#j);}.k{fill:url(#k);}.l{fill:url(#l);}.m{fill:url(#m);}.n{fill:url(#n);}.o{fill:#2babe2;}.p{fill:url(#o);}.q{fill:url(#p);}</style><linearGradient id="a" x1="-0.262" y1="0.186" x2="1.501" y2="1.045" gradientUnits="objectBoundingBox"><stop offset="0" stop-color="#042c3a"/><stop offset="0.43" stop-color="#005379"/><stop offset="0.72" stop-color="#2babe2"/><stop offset="0.89" stop-color="#5ec3eb"/><stop offset="1" stop-color="#8dd2ee"/></linearGradient><linearGradient id="b" x1="0.5" y1="1.619" x2="0.5" y2="-1.23" gradientUnits="objectBoundingBox"><stop offset="0" stop-color="#042c3a"/><stop offset="0.43" stop-color="#005379"/><stop offset="0.66" stop-color="#2babe2"/><stop offset="0.89" stop-color="#5ec3eb"/><stop offset="1" stop-color="#8dd2ee"/></linearGradient><linearGradient id="c" x1="0.5" y1="1.624" x2="0.5" y2="-1.244" xlink:href="#b"/><linearGradient id="d" x1="0.5" y1="12.131" x2="0.5" y2="-6.87" xlink:href="#b"/><linearGradient id="e" x1="0.5" y1="12.105" x2="0.5" y2="-6.857" xlink:href="#b"/><linearGradient id="f" x1="0.5" y1="11.913" x2="0.5" y2="-6.747" xlink:href="#b"/><linearGradient id="g" x1="0.5" y1="11.772" x2="0.5" y2="-6.648" xlink:href="#b"/><linearGradient id="h" x1="0.5" y1="12.128" x2="0.5" y2="-6.868" xlink:href="#b"/><linearGradient id="i" x1="0.5" y1="12.115" x2="0.5" y2="-6.859" xlink:href="#b"/><linearGradient id="j" x1="0.5" y1="12.136" x2="0.5" y2="-6.873" xlink:href="#b"/><linearGradient id="k" x1="0.5" y1="12.128" x2="0.5" y2="-6.868" xlink:href="#b"/><linearGradient id="l" x1="0.5" y1="11.772" x2="0.5" y2="-6.648" xlink:href="#b"/><linearGradient id="m" x1="-0.431" y1="0.251" x2="2.76" y2="1.029" gradientUnits="objectBoundingBox"><stop offset="0" stop-color="#042c3a"/><stop offset="0.03" stop-color="#03384e"/><stop offset="0.08" stop-color="#024461"/><stop offset="0.14" stop-color="#014d6f"/><stop offset="0.21" stop-color="#005277"/><stop offset="0.33" stop-color="#005379"/><stop offset="0.66" stop-color="#2babe2"/><stop offset="0.89" stop-color="#5ec3eb"/><stop offset="1" stop-color="#8dd2ee"/></linearGradient><linearGradient id="n" x1="1.009" y1="1.181" x2="-0.151" y2="-0.469" gradientUnits="objectBoundingBox"><stop offset="0" stop-color="#042c3a"/><stop offset="0.07" stop-color="#033a51"/><stop offset="0.14" stop-color="#014563"/><stop offset="0.23" stop-color="#014d70"/><stop offset="0.35" stop-color="#005277"/><stop offset="0.62" stop-color="#005379"/><stop offset="0.98" stop-color="#2babe2"/></linearGradient><linearGradient id="o" x1="0.5" y1="19.557" x2="0.5" y2="-8.781" gradientUnits="objectBoundingBox"><stop offset="0" stop-color="#042c3a"/><stop offset="0.43" stop-color="#005379"/><stop offset="0.66" stop-color="#2eaae2"/><stop offset="0.89" stop-color="#5ec3eb"/><stop offset="1" stop-color="#8dd2ee"/></linearGradient><linearGradient id="p" x1="0.5" y1="1.698" x2="0.5" y2="-0.966" xlink:href="#o"/></defs><path class="a" d="M135.742,42.567a26.373,26.373,0,0,1,1.36,11.376c-.907,8.488-6.038,15.911-14.052,21.66A23.785,23.785,0,0,0,130,61.136c.045-.528.082-1.056.082-1.588a24.146,24.146,0,0,0-1.333-8.222,1.549,1.549,0,0,1,0,.248c-1.691,18.921-26.976,30.951-58.4,28.961a.132.132,0,0,1-.073,0c-.589-.068-1.192-.149-1.786-.244C35.268,75.215,9.824,54.371,11.669,33.727A24.726,24.726,0,0,1,18.8,18.7c-1.074.505-2.117,1.047-3.123,1.611C6.633,25.4.876,32.635.1,41.317a1.411,1.411,0,0,0,0,.239C-1.263,58.884,17.562,76.487,44.52,85.038l.109.036c.521.167,1.043.329,1.573.487a107.152,107.152,0,0,0,15.349,3.452H61.8c1.242.181,2.489.347,3.753.487a101.172,101.172,0,0,0,26.5-.23l1.02-.14.589-.095C118,85.25,136.078,72.67,137.878,55.978a26.844,26.844,0,0,0-2.135-13.411Z" transform="translate(-0.027 -10.262)"/><path class="b" d="M85.565,78.693V78.67h.258V67.7h8.835l11.106,10.979h19.814L112.342,65.48c4.887-2.843,8.821-7.671,8.821-14.106,0-9.86-7.094-17.044-17.189-17.044l-26.985-.09-.068,37.955-2.081,2.1a78.6,78.6,0,0,0,7.806,4.422ZM85.9,49.871h17.992a1.809,1.809,0,0,1,1.813,1.805v.79a1.809,1.809,0,0,1-1.813,1.805H85.9Z" transform="translate(-40.927 -18.789)"/><path class="c" d="M172.322,51.694c0,.3,0,.6-.027.9a17.919,17.919,0,0,1-.258,2.216,17.094,17.094,0,0,1-1.5,4.436,17.972,17.972,0,0,1-1.269,2.161,20.087,20.087,0,0,1-4.6,4.72L177.059,78.48a62.588,62.588,0,0,0,8.159.5c16.409,0,26.922-5.063,28.9-17.572H196.1c-1.781,2.563-5.5,3.317-10.838,3.317s-9.066-.758-10.829-3.317a6.334,6.334,0,0,1-.952-2.152,9.886,9.886,0,0,1-.267-2.365,10.416,10.416,0,0,1,.195-2.071,6.476,6.476,0,0,1,.866-2.216c1.723-2.744,5.5-3.556,10.97-3.556s9.27.8,10.993,3.556h17.942c-1.881-12.68-12.425-17.811-28.934-17.811-7.421,0-13.631,1.038-18.395,3.33A18.353,18.353,0,0,1,172.322,51.694Z" transform="translate(-90.037 -19.091)"/><path class="d" d="M81.553,17.665l2.516,3.646h1.985V14.52H83.987v3.42l-2.371-3.42H79.49v6.791h2.063Z" transform="translate(-43.469 -7.968)"/><path class="e" d="M102.854,17.9c0-2.157-1.587-3.371-3.726-3.371H96.1V21.3h3.042C101.268,21.281,102.854,20.053,102.854,17.9Zm-4.7,1.6V16.308h.988a1.479,1.479,0,0,1,1.627,1.593,1.565,1.565,0,0,1-1.641,1.6Z" transform="translate(-52.55 -7.973)"/><path class="f" d="M115.623,21.311c2.267,0,3.214-1.214,3.214-2.87V14.52h-2.058v3.858a1.16,1.16,0,0,1-2.321,0V14.52H112.4v3.93C112.4,20.1,113.361,21.311,115.623,21.311Z" transform="translate(-61.461 -7.968)"/><path class="g" d="M131.064,19.509a3.117,3.117,0,0,1-2.158-.862l-1.056,1.5a4.455,4.455,0,0,0,3.114,1.06c1.813,0,2.892-.853,2.892-2.324,0-1.539-1.636-1.859-2.72-2.049-.712-.117-.984-.208-.984-.451,0-.171.113-.347.612-.347a3.337,3.337,0,0,1,1.872.659l1.083-1.43a4.442,4.442,0,0,0-2.842-.93c-1.84,0-2.783,1.029-2.783,2.161,0,1.67,1.686,1.927,2.792,2.125.662.122.943.253.943.51S131.449,19.509,131.064,19.509Z" transform="translate(-69.908 -7.867)"/><path class="h" d="M143.56,21.311h2.026V16.28h1.791V14.52H141.76v1.76h1.8Z" transform="translate(-77.512 -7.968)"/><path class="i" d="M157.813,19.122h.748l.934,2.18h2.353L160.61,18.9a2.178,2.178,0,0,0,1.228-2.053,2.262,2.262,0,0,0-2.452-2.333H155.76V21.3h2.063Zm0-2.9h1.26a.6.6,0,1,1,0,1.191h-1.26Z" transform="translate(-85.166 -7.958)"/><rect class="j" width="2.031" height="6.787" transform="translate(77.389 6.552)"/><path class="k" d="M178.386,14.52l-2.516,6.791h2.239l.267-.875h2.616l.267.875H183.5l-2.516-6.769Zm.521,4.206.78-2.392.775,2.392Z" transform="translate(-96.16 -7.968)"/><path class="l" d="M195.424,19.509a3.117,3.117,0,0,1-2.158-.862l-1.056,1.5a4.441,4.441,0,0,0,3.114,1.06c1.813,0,2.892-.853,2.892-2.324,0-1.539-1.636-1.859-2.742-2.049-.712-.117-.984-.208-.984-.451,0-.171.109-.347.612-.347a3.309,3.309,0,0,1,1.868.659l1.088-1.43a4.451,4.451,0,0,0-2.842-.93c-1.84,0-2.783,1.029-2.783,2.161,0,1.67,1.686,1.927,2.792,2.125.662.122.943.253.943.51S195.8,19.509,195.424,19.509Z" transform="translate(-105.093 -7.867)"/><path class="m" d="M15.754,20.311C6.71,25.4.954,32.635.174,41.317a1.411,1.411,0,0,0,0,.239C4.584,54.913,19.992,67.408,40.608,74.578a113.785,113.785,0,0,0,19.909,4.9q5.018.758,9.859,1.056c-.589-.068-1.192-.149-1.786-.244C35.346,75.215,9.9,54.371,11.747,33.727A24.738,24.738,0,0,1,18.877,18.7Z" transform="translate(-0.105 -10.262)"/><path class="n" d="M28.363,11.144a24.788,24.788,0,0,0-7.13,15.027c-1.845,20.645,23.6,41.488,56.83,46.56.594.095,1.2.176,1.786.244a.132.132,0,0,0,.073,0c31.423,2,56.708-10.027,58.394-28.948a1.549,1.549,0,0,0,0-.248c1.16-14.616-12.08-29.444-32.465-38.848A96.971,96.971,0,0,1,122.369,12.4C138.624,21.816,148.66,34.87,147.5,47.731c-.78,8.7-6.546,15.947-15.6,21.033-12.692,7.13-31.8,10.049-52.728,6.859a109.417,109.417,0,0,1-29.106-8.6c-20.5-9.476-33.775-24.408-32.452-39.11a24.019,24.019,0,0,1,7.611-15.157Z" transform="translate(-9.591 -2.705)"/><path class="o" d="M120.43,9.91h-1.21l-.97,1.385h1.21Z" transform="translate(-64.66 -5.438)"/><path class="p" d="M55.09,4.472H64v-.8A3.682,3.682,0,0,0,60.307,0H55.09Z" transform="translate(-30.13)"/><path class="q" d="M55.09,14.52V42.376l.059,14.192a77.135,77.135,0,0,0,7.072,5.663L64,60.466V14.52Z" transform="translate(-30.13 -7.968)"/></svg>