<svg xmlns="http://www.w3.org/2000/svg" width="110.4" height="64" viewBox="0 0 110.4 64"><defs><style>.a{fill:#fff;}</style></defs><path class="a" d="M108.6,37.793a21.1,21.1,0,0,1,1.088,9.1c-.725,6.79-4.83,12.729-11.242,17.328a19.028,19.028,0,0,0,5.563-11.574c.036-.422.065-.845.065-1.271a19.317,19.317,0,0,0-1.066-6.577,1.239,1.239,0,0,1,0,.2C101.655,60.136,81.427,69.76,56.288,68.168a.106.106,0,0,1-.058,0c-.471-.054-.954-.119-1.429-.195C28.22,63.912,7.865,47.237,9.341,30.721a19.781,19.781,0,0,1,5.7-12.021c-.859.4-1.694.838-2.5,1.289C5.312,24.057.706,29.848.083,36.793a1.128,1.128,0,0,0,0,.191C-1.005,50.847,14.055,64.93,35.622,71.771l.087.029c.417.134.834.264,1.258.39a85.721,85.721,0,0,0,12.279,2.762h.2c.994.144,1.991.278,3,.39a80.938,80.938,0,0,0,21.2-.184l.816-.112.471-.076c19.474-3.029,33.932-13.093,35.372-26.447A21.475,21.475,0,0,0,108.6,37.793Z" transform="translate(-0.027 -11.949)"/><path class="a" d="M83.42,69.8v-.018h.207V61h7.068l8.885,8.783H115.43L104.841,59.232c3.909-2.274,7.057-6.137,7.057-11.285,0-7.888-5.675-13.635-13.751-13.635L76.559,34.24,76.5,64.6,74.84,66.282a62.881,62.881,0,0,0,6.245,3.538Zm.268-23.057H98.082a1.447,1.447,0,0,1,1.451,1.444v.632a1.447,1.447,0,0,1-1.451,1.444H83.688Z" transform="translate(-47.71 -21.879)"/><path class="a" d="M170.791,48.313c0,.238,0,.48-.022.722a14.34,14.34,0,0,1-.207,1.773,13.675,13.675,0,0,1-1.2,3.549,14.372,14.372,0,0,1-1.015,1.729,16.069,16.069,0,0,1-3.681,3.776l9.911,9.881a50.07,50.07,0,0,0,6.528.4c13.128,0,21.537-4.05,23.118-14.057H189.812c-1.425,2.05-4.4,2.653-8.671,2.653s-7.253-.606-8.663-2.653a5.067,5.067,0,0,1-.762-1.722,7.907,7.907,0,0,1-.214-1.892,8.331,8.331,0,0,1,.156-1.657,5.18,5.18,0,0,1,.693-1.773c1.378-2.195,4.4-2.845,8.776-2.845s7.416.643,8.794,2.845h14.353c-1.5-10.144-9.94-14.249-23.147-14.249-5.936,0-10.9.83-14.716,2.664A14.682,14.682,0,0,1,170.791,48.313Z" transform="translate(-104.964 -22.231)"/><path class="a" d="M81.14,17.036l2.013,2.917h1.588V14.52H83.087v2.736l-1.9-2.736h-1.7v5.433h1.65Z" transform="translate(-50.674 -9.278)"/><path class="a" d="M101.5,17.227a2.673,2.673,0,0,0-2.981-2.7H96.1v5.415h2.433A2.7,2.7,0,0,0,101.5,17.227Zm-3.761,1.282V15.952h.791a1.183,1.183,0,0,1,1.3,1.274,1.252,1.252,0,0,1-1.313,1.282Z" transform="translate(-61.26 -9.285)"/><path class="a" d="M114.978,19.953c1.813,0,2.571-.971,2.571-2.3V14.52H115.9v3.087a.928.928,0,0,1-1.857,0V14.52H112.4v3.144C112.4,18.982,113.169,19.953,114.978,19.953Z" transform="translate(-71.649 -9.278)"/><path class="a" d="M130.421,18.475a2.494,2.494,0,0,1-1.726-.69l-.845,1.2a3.564,3.564,0,0,0,2.491.848c1.451,0,2.314-.682,2.314-1.859,0-1.231-1.309-1.487-2.176-1.639-.569-.094-.787-.166-.787-.361,0-.137.091-.278.49-.278a2.669,2.669,0,0,1,1.5.527l.867-1.144a3.554,3.554,0,0,0-2.274-.744c-1.472,0-2.227.823-2.227,1.729,0,1.336,1.349,1.541,2.234,1.7.529.1.754.2.754.408S130.729,18.475,130.421,18.475Z" transform="translate(-81.496 -9.161)"/><path class="a" d="M143.2,19.953h1.621V15.928h1.432V14.52H141.76v1.408h1.44Z" transform="translate(-90.362 -9.278)"/><path class="a" d="M157.4,18.2h.6l.747,1.744h1.882l-.99-1.924a1.743,1.743,0,0,0,.983-1.643,1.81,1.81,0,0,0-1.962-1.866h-2.9v5.433h1.65Zm0-2.321h1.008a.48.48,0,1,1,0,.953H157.4Z" transform="translate(-99.285 -9.267)"/><rect class="a" width="1.625" height="5.429" transform="translate(61.911 5.242)"/><path class="a" d="M177.883,14.52l-2.013,5.433h1.791l.214-.7h2.092l.214.7h1.791l-2.013-5.415Zm.417,3.365.624-1.913.62,1.913Z" transform="translate(-112.102 -9.278)"/><path class="a" d="M194.781,18.475a2.494,2.494,0,0,1-1.726-.69l-.845,1.2a3.553,3.553,0,0,0,2.491.848c1.451,0,2.314-.682,2.314-1.859,0-1.231-1.309-1.487-2.194-1.639-.569-.094-.787-.166-.787-.361,0-.137.087-.278.49-.278a2.648,2.648,0,0,1,1.494.527l.87-1.144a3.561,3.561,0,0,0-2.274-.744c-1.472,0-2.227.823-2.227,1.729,0,1.336,1.349,1.541,2.234,1.7.529.1.754.2.754.408S195.086,18.475,194.781,18.475Z" transform="translate(-122.517 -9.161)"/><path class="a" d="M12.637,19.989C5.4,24.057.8,29.848.173,36.793a1.128,1.128,0,0,0,0,.191C3.7,47.67,16.028,57.666,32.52,63.4a91.029,91.029,0,0,0,15.927,3.917q4.014.606,7.887.845c-.471-.054-.954-.119-1.429-.195C28.31,63.912,7.955,47.237,9.431,30.721a19.79,19.79,0,0,1,5.7-12.021Z" transform="translate(-0.118 -11.949)"/><path class="a" d="M26.194,9.9a19.83,19.83,0,0,0-5.7,12.021C19.014,38.438,39.369,55.113,65.954,59.17c.475.076.957.141,1.429.195a.106.106,0,0,0,.058,0c25.138,1.6,45.366-8.021,46.715-23.158a1.24,1.24,0,0,0,0-.2c.928-11.693-9.664-23.555-25.972-31.078A77.577,77.577,0,0,1,101.4,10.908c13,7.53,21.033,17.974,20.1,28.263-.624,6.96-5.237,12.758-12.482,16.826-10.154,5.7-25.443,8.039-42.182,5.487A87.533,87.533,0,0,1,43.554,54.6c-16.4-7.581-27.02-19.527-25.961-31.288A19.215,19.215,0,0,1,23.681,11.19Z" transform="translate(-11.176 -3.15)"/><path class="a" d="M119.994,9.91h-.968l-.776,1.108h.968Z" transform="translate(-75.378 -6.332)"/><path class="a" d="M55.09,3.578h7.126V2.939A2.945,2.945,0,0,0,59.264,0H55.09Z" transform="translate(-35.122)"/><path class="a" d="M55.09,14.52V36.8l.047,11.353a61.708,61.708,0,0,0,5.657,4.531l1.422-1.412V14.52Z" transform="translate(-35.122 -9.278)"/></svg>