<svg xmlns="http://www.w3.org/2000/svg" width="28" height="20" viewBox="0 0 28 20"><defs><style>.a{fill:#2babe2;}</style></defs><g transform="translate(-3.375 -7.875)"><path class="a" d="M31.146,10.356l-7.243,7.6a.137.137,0,0,0,0,.194l5.069,5.56a.918.918,0,0,1,0,1.276.86.86,0,0,1-1.239,0l-5.048-5.539a.136.136,0,0,0-.2,0l-1.232,1.29A5.343,5.343,0,0,1,17.4,22.413a5.45,5.45,0,0,1-3.944-1.726l-1.185-1.241a.136.136,0,0,0-.2,0L7.023,24.984a.86.86,0,0,1-1.239,0,.918.918,0,0,1,0-1.276l5.069-5.56a.152.152,0,0,0,0-.194L3.6,10.356a.132.132,0,0,0-.229.1v15.2a2.193,2.193,0,0,0,2.154,2.218H29.221a2.193,2.193,0,0,0,2.154-2.218v-15.2A.134.134,0,0,0,31.146,10.356Z" transform="translate(0)"/><path class="a" d="M17.375,20.749A3.569,3.569,0,0,0,20,19.6L30.531,8.367A2.054,2.054,0,0,0,29.2,7.875H5.555a2.04,2.04,0,0,0-1.329.492L14.758,19.6A3.571,3.571,0,0,0,17.375,20.749Z"/></g></svg>