<svg xmlns="http://www.w3.org/2000/svg" width="34" height="30" viewBox="0 0 34 30"><defs><style>.a{fill:#2babe2;}</style></defs><path class="a" d="M17,0A7.41,7.41,0,0,0,9.563,7.383c0,3.3,4.861,9.3,6.723,11.486a.935.935,0,0,0,1.428,0c1.862-2.181,6.723-8.189,6.723-11.486A7.41,7.41,0,0,0,17,0Zm0,9.844a2.461,2.461,0,1,1,2.479-2.461A2.47,2.47,0,0,1,17,9.844ZM1.188,12.653A1.876,1.876,0,0,0,0,14.394V29.061a.944.944,0,0,0,1.3.871L9.444,26.25V12.593A17.682,17.682,0,0,1,8.19,9.873ZM17,21.074a2.829,2.829,0,0,1-2.155-.994c-1.16-1.359-2.395-2.907-3.512-4.5V26.249L22.667,30V15.586c-1.117,1.587-2.35,3.136-3.512,4.5A2.83,2.83,0,0,1,17,21.074ZM32.7,9.443l-8.149,3.682V30l8.257-3.278A1.875,1.875,0,0,0,34,24.981V10.314A.944.944,0,0,0,32.7,9.443Z"/></svg>