<svg xmlns="http://www.w3.org/2000/svg" xmlns:xlink="http://www.w3.org/1999/xlink" width="34.478" height="64" viewBox="0 0 34.478 64"><defs><style>.a{fill:none;}.b{clip-path:url(#a);}.c{fill:#2babe2;}.d{fill:#fefefe;}.e{fill:#9a9a9a;}</style><clipPath id="a"><rect class="a" width="34.478" height="64"/></clipPath></defs><g class="b"><path class="c" d="M161.926,89.96c.028.078-.076-.05.006-.054h.013c-.02.01-.031.021-.019.055" transform="translate(-141.633 -78.65)"/><path class="c" d="M87.547,98.239c0,.073,0,.146,0,.219-.156.028-.313-.025-.307-.178,0-.085.194-.073.308-.041" transform="translate(-76.318 -85.921)"/><path d="M87.239,98.281c-.006.153.15.205.307.178,0-.073,0-.146,0-.219-.114-.031-.3-.044-.308.041" transform="translate(-76.318 -85.921)"/><path class="c" d="M34.451,58.723a3.244,3.244,0,0,0-.237-1.585,2.7,2.7,0,0,0-2.395-1.43,4.7,4.7,0,0,1-1.421-.086,2.93,2.93,0,0,0,.11-3.177,3.177,3.177,0,0,0-1.892-1.435c-2.685-.876-5.414-1.612-8.025-2.424,2.286-.264,4.643-.643,7.014-.926a8.4,8.4,0,0,0,.86-.148,2.954,2.954,0,0,0,.4-5.733c-2.829-.984-5.723-1.759-8.363-2.534.622-.023,1.47-.178,2.32-.29,1.873-.249,3.752-.459,5.614-.779a2.956,2.956,0,0,0,.642-5.664,8.682,8.682,0,0,0-1.049-.4c-2.509-.725-5.007-1.485-7.483-2.211.757-.071,1.538-.166,2.315-.309s1.2-.668,1.085-1.324a1.181,1.181,0,0,0-1.446-.859c-4.4.607-8.809,1.179-13.21,1.788-.884.121-1.768.255-2.656.337a.817.817,0,0,1-.9-.683c-.028-.458.269-.667.663-.775a5.149,5.149,0,0,1,.675-.121q8.641-1.172,17.285-2.322a28.232,28.232,0,0,1,3.461-.416c.439,0,.8.168.842.65.04.446-.288.658-.665.79a2.218,2.218,0,0,1-.552.086,2.937,2.937,0,0,0-.965.232,1.069,1.069,0,0,0,.476,2.064,10.017,10.017,0,0,0,1.785-.26A2.955,2.955,0,0,0,30.8,25.118a3.138,3.138,0,0,0-1.955-2.043,18.712,18.712,0,0,0-2.018-.643c-2.137-.608-4.246-1.313-6.4-1.88-.024-.005-.043.005-.059-.009.034,0,.068,0,.1,0a8.289,8.289,0,0,0,1.849-.19c2.081-.274,4.169-.492,6.233-.868A2.788,2.788,0,0,0,30.8,17.4a2.866,2.866,0,0,0-.757-2.926,2.97,2.97,0,0,0-1.319-.8c-2.623-.874-5.289-1.6-7.937-2.393-.069-.02-.14-.048-.213-.061,2.584-.3,5.16-.645,7.73-1.028a2.518,2.518,0,0,0,1.868-1.013,1.639,1.639,0,0,1,1.72-.825,1.578,1.578,0,0,0,.493-.056A2.516,2.516,0,0,0,34.4,6.334a27.345,27.345,0,0,0,.014-3.987A2.248,2.248,0,0,0,31.874,0c-1.412,0-2.825,0-4.237,0q-7.2,0-14.4,0C12.5.006,12.1.334,12.06.924A1.12,1.12,0,0,0,13.114,2.1a5.787,5.787,0,0,0,.871.029H30.751c.249,0,.5.006.747,0,.492-.009.72.227.721.72,0,.729,0,1.457,0,2.184,0,1.016-.07,1.079-1.112,1.084H3.5c-.188,0-.374.005-.561-.005-.61-.034-.73-.139-.749-.747-.025-.79-.018-1.582,0-2.372.013-.74.13-.855.891-.863,1.2-.013,2.41,0,3.614-.005.769,0,1.538.025,2.306-.013a1.182,1.182,0,0,0,1.211-.885C10.366.544,9.9.01,9.11.006,6.949,0,4.788,0,2.628,0A2.241,2.241,0,0,0,0,2.061V6.182a2.461,2.461,0,0,0,.787,1.5,2.907,2.907,0,0,0,1.9.668,3.635,3.635,0,0,1,1.246.066.331.331,0,0,1-.043.229,3,3,0,0,0,1.845,4.38c2.738.82,5.475,1.632,8.238,2.455a.577.577,0,0,0-.124.005c-2.721.322-5.444.65-8.143,1.123A2.935,2.935,0,0,0,3.474,19.25,3.023,3.023,0,0,0,5.12,22.108a7.137,7.137,0,0,0,1.167.434q2.178.653,4.361,1.294c1.144.334,2.273.727,3.357.95-2.619.349-5.338.676-8.042,1.107a3.015,3.015,0,0,0-2.492,2.749,2.959,2.959,0,0,0,1.984,2.946c2.855.954,5.757,1.75,8.486,2.561-1.048.1-2.248.288-3.453.447-1.543.2-3.1.361-4.624.655a2.908,2.908,0,0,0-2.221,3.8,3.262,3.262,0,0,0,2.437,2.108c2.585.772,5.175,1.53,7.781,2.325-.637.064-1.242.165-1.848.248-2.058.283-4.127.488-6.17.86A2.933,2.933,0,0,0,3.479,47.31a3.105,3.105,0,0,0,1.8,2.9,11.925,11.925,0,0,0,1.417.477c2.444.714,4.875,1.463,7.236,2.143a1.407,1.407,0,0,0-.217.021c-2.574.338-5.15.658-7.715,1.057a2.474,2.474,0,0,0-1.868,1.123,1.371,1.371,0,0,1-1.39.7A2.488,2.488,0,0,0,0,57.881V62a2.255,2.255,0,0,0,1.994,2H25.555c.591-.31.781-.645.667-1.173a1.08,1.08,0,0,0-1.068-.879,9.293,9.293,0,0,0-.934-.019H3.657c-.249,0-.5-.008-.747-.005-.5.005-.71-.245-.714-.731-.005-.666,0-1.332,0-2,0-1.226.019-1.243,1.261-1.243H30.871c.208,0,.416.008.623.006.491,0,.716.233.717.726,0,.79.01,1.581,0,2.371-.011.747-.121.849-.884.87-.706.02-1.415-.044-2.117.038a1.136,1.136,0,0,0-1.053.986c-.056.5.164.8.764,1.049h3.49c.163-.108.359-.076.537-.129A2.237,2.237,0,0,0,34.4,62.089a28.771,28.771,0,0,0,.048-3.366M6.621,11.05a.938.938,0,1,1-.21-1.859c1.272-.179,2.555-.3,3.821-.521,4.8-.84,9.649-.366,14.475-.486.891-.023,1.784,0,2.676,0l.008.078-13.371,1.8L7.053,11c-.144.019-.287.046-.432.053m13.672.26c.028.078-.076-.05.006-.054h.013c-.02.01-.031.021-.019.055m-9.066,1.228c-.156.028-.313-.025-.307-.178,0-.085.194-.073.308-.041,1.048-.135,2.1-.232,3.14-.419a3.74,3.74,0,0,1,1.821.151c2.41.735,4.827,1.447,7.251,2.286a18.8,18.8,0,0,0-2.338.351c-1.784.489-3.371-.227-5-.7s-3.248-.965-4.872-1.448M6.861,20.364c-.7.1-1.137-.106-1.3-.647a.912.912,0,0,1,.854-1.178c2.117-.3,4.235-.581,6.352-.866l12.582-1.695c.822-.111,1.646-.219,2.38-.317.68-.019,1.09.3,1.152.817a.972.972,0,0,1-.929,1.047c-2.507.344-5.016.676-7.525,1.013q-6.784.913-13.568,1.826m4.54,1.562c-.154-.046-.324-.054-.442-.224l3.878-.527a1.732,1.732,0,0,1,.739.031c2.635.791,5.27,1.58,7.914,2.465-1.185.164-2.372.314-3.554.5a3.175,3.175,0,0,1-1.457-.129c-2.356-.716-4.718-1.413-7.078-2.114m-.446,9.118c1.395-.188,2.787-.406,4.185-.545a3.235,3.235,0,0,1,1.135.273Q19.7,31.78,23.117,32.8c.133.039.262.094.553.2-1.515.2-2.859.378-4.2.548a1.237,1.237,0,0,1-.489-.029c-2.675-.791-5.347-1.59-8.02-2.475M6.545,39.068a.931.931,0,1,1-.113-1.858c1.641-.239,3.289-.448,4.932-.668l16.221-2.176c.714-.1,1.18.169,1.286.739s-.254.993-.988,1.094c-3.246.451-6.494.885-9.743,1.324L7.349,38.979c-.268.036-.537.06-.8.089m4.4,1.319c1.413-.194,2.823-.4,4.239-.57a2.154,2.154,0,0,1,.775.2q3.536,1.052,7.072,2.107c.154.046.332.04.457.243-1.15.15-2.265.267-3.366.453a3.712,3.712,0,0,1-1.764-.138c-2.465-.752-4.94-1.473-7.412-2.293M6.685,48.4c-.69.019-1.1-.3-1.162-.816a.968.968,0,0,1,.926-1.045c2.507-.344,5.017-.676,7.525-1.013q6.786-.913,13.57-1.828c.7-.1,1.135.106,1.3.647a.914.914,0,0,1-.854,1.179c-2.117.3-4.234.58-6.352.865q-6.29.851-12.581,1.7c-.822.11-1.646.219-2.37.314m4.3,1.425c.264-.257.571-.169.837-.209,1.045-.159,2.093-.29,3.138-.448a1.645,1.645,0,0,1,.729.1q3.8,1.132,7.611,2.262c.081.14-.044.166-.12.22-1.13.15-2.261.293-3.389.456a2.185,2.185,0,0,1-.976-.049c-2.593-.782-5.19-1.547-7.83-2.331m17.065,5.039c-3.355.362-6.666,1.109-10.073,1.035-3.361-.071-6.725-.015-10.087-.015H7.1l0-.084,6.766-.915L26.435,53.19c.473-.064.945-.145,1.42-.175a.93.93,0,1,1,.193,1.849" transform="translate(0 0)"/><path class="d" d="M89.266,98.4c0,.073,0,.146,0,.219a.128.128,0,0,1,0-.219" transform="translate(-78.037 -86.086)"/><path class="e" d="M87.547,98.239c0,.073,0,.146,0,.219-.156.028-.313-.025-.307-.178,0-.085.194-.073.308-.041" transform="translate(-76.318 -85.921)"/></g></svg>