<svg xmlns="http://www.w3.org/2000/svg" width="105" height="64" viewBox="0 0 105 64"><defs><style>.a{fill:#2babe2;}</style></defs><g transform="translate(-8)"><path class="a" d="M24.256,49.9H80.741L101.2,62.015H3.8ZM3.8,33.926h97.4L80.744,46.044H24.259Zm20.452-15.97H80.741L101.2,30.074H3.8ZM3.8,1.985h97.4L80.744,14.1H24.259ZM0,0V1.985L20.457,14.1l3.251,1.926-3.254,1.926L0,30.074v3.852L20.457,46.044l3.251,1.926L20.455,49.9,0,62.015V64H105V62.015L84.543,49.9,81.291,47.97l3.254-1.926L105,33.926V30.074L84.543,17.956,81.291,16.03,84.545,14.1,105,1.985V0Z" transform="translate(8)"/></g></svg>