<svg xmlns="http://www.w3.org/2000/svg" width="24" height="24" viewBox="0 0 24 24"><defs><style>.a{fill:#fff;}</style></defs><g transform="translate(-3 -3)"><path class="a" d="M29.25,14.25A11.252,11.252,0,0,0,18,3l0,2.25a9,9,0,0,1,9,9Z" transform="translate(-2.25)"/><path class="a" d="M3,13.25V7.208A1.208,1.208,0,0,1,4.208,6H10.25a1.208,1.208,0,0,1,1.208,1.208v4.833A1.208,1.208,0,0,1,10.25,13.25H7.833A9.667,9.667,0,0,0,17.5,22.917V20.5a1.208,1.208,0,0,1,1.208-1.208h4.833A1.208,1.208,0,0,1,24.75,20.5v6.042a1.208,1.208,0,0,1-1.208,1.208H17.5A14.5,14.5,0,0,1,3,13.25Z" transform="translate(0 -0.75)"/><path class="a" d="M24.236,13.167a6.739,6.739,0,0,1,.514,2.583H22.724A4.723,4.723,0,0,0,18,11.025V9a6.75,6.75,0,0,1,6.236,4.167Z" transform="translate(-2.679 -1.071)"/></g></svg>