<svg xmlns="http://www.w3.org/2000/svg" width="20.001" height="20" viewBox="0 0 20.001 20"><defs><style>.a{fill:#005379;}</style></defs><path class="a" d="M19.687.123a.7.7,0,0,1,.3.714L17.131,17.98a.7.7,0,0,1-.357.5.684.684,0,0,1-.346.089.753.753,0,0,1-.268-.056L11.1,16.451,8.4,19.743A.657.657,0,0,1,7.856,20a.606.606,0,0,1-.246-.044.714.714,0,0,1-.469-.67V15.391L16.785,3.571,4.854,13.9.446,12.087a.706.706,0,0,1-.089-1.272L18.927.1a.682.682,0,0,1,.357-.1.692.692,0,0,1,.4.123Z" transform="translate(0.002)"/></svg>