<svg xmlns="http://www.w3.org/2000/svg" width="64" height="64" viewBox="0 0 64 64"><defs><style>.a{fill:#2babe2;}</style></defs><g transform="translate(-2 -2)"><path class="a" d="M30.27,22.09a8.18,8.18,0,1,1-8.18-8.18,8.18,8.18,0,0,1,8.18,8.18Z" transform="translate(11.91 11.91)"/><path class="a" d="M28.17,7.83A20.34,20.34,0,1,0,48.51,28.17,20.34,20.34,0,0,0,28.17,7.83Zm0,32a11.71,11.71,0,1,1,0,.1Z" transform="translate(5.83 5.83)"/><path class="a" d="M34,2A32,32,0,1,0,66,34,32,32,0,0,0,34,2Zm0,55.66A23.66,23.66,0,1,1,57.66,34,23.66,23.66,0,0,1,34,57.66Z"/></g></svg>