<svg xmlns="http://www.w3.org/2000/svg" width="19.696" height="16" viewBox="0 0 19.696 16"><defs><style>.a{fill:#005379;}</style></defs><path class="a" d="M19.7,1.9a8.182,8.182,0,0,1-2.019,2.087q.012.231.012.523a11.607,11.607,0,0,1-1.916,6.354A12.276,12.276,0,0,1,13.46,13.49a10.312,10.312,0,0,1-3.227,1.828A11.786,11.786,0,0,1,6.194,16,11.247,11.247,0,0,1,0,14.184a8.737,8.737,0,0,0,.964.056,7.922,7.922,0,0,0,5.019-1.731A3.921,3.921,0,0,1,3.637,11.7a3.971,3.971,0,0,1-1.426-2,4.039,4.039,0,0,0,1.825-.068,3.938,3.938,0,0,1-2.32-1.392A3.91,3.91,0,0,1,.794,5.675v-.05a3.988,3.988,0,0,0,1.831.506A4.014,4.014,0,0,1,1.311,4.69,3.943,3.943,0,0,1,.826,2.769,3.97,3.97,0,0,1,1.373.739,11.505,11.505,0,0,0,5.057,3.721,11.229,11.229,0,0,0,9.7,4.961a3.951,3.951,0,0,1-.106-.92,3.893,3.893,0,0,1,1.184-2.856,4.042,4.042,0,0,1,5.806.09A8.048,8.048,0,0,0,19.15.294,3.907,3.907,0,0,1,17.375,2.53,8.075,8.075,0,0,0,19.7,1.9Z"/></svg>