<svg xmlns="http://www.w3.org/2000/svg" xmlns:xlink="http://www.w3.org/1999/xlink" width="64" height="64" viewBox="0 0 64 64"><defs><style>.a{fill:#2babe2;}.b{clip-path:url(#a);}</style><clipPath id="a"><rect class="a" width="64" height="64"/></clipPath></defs><g class="b"><path class="a" d="M136.7,119.72a17,17,0,1,0,17.012,17.051A17.007,17.007,0,0,0,136.7,119.72m-.055,32.247a15.249,15.249,0,1,1,15.318-15.312,15.26,15.26,0,0,1-15.318,15.312" transform="translate(-104.721 -104.721)"/><path class="a" d="M64,28.256a1.018,1.018,0,0,0-.9-1.138c-1.439-.318-2.871-.672-4.312-.988a.623.623,0,0,1-.566-.536,25.9,25.9,0,0,0-3.173-7.613.582.582,0,0,1,0-.723c.794-1.244,1.57-2.5,2.347-3.753.42-.678.388-.972-.173-1.535Q54.642,9.38,52.053,6.8c-.6-.6-.874-.63-1.581-.192-1.219.755-2.443,1.5-3.646,2.281a.7.7,0,0,1-.882.014,25.973,25.973,0,0,0-7.5-3.121.663.663,0,0,1-.588-.591C37.554,3.791,37.2,2.4,36.9,1a1.447,1.447,0,0,0-.648-1h-8.5a1.066,1.066,0,0,0-.792.926c-.3,1.339-.648,2.668-.92,4.014a.9.9,0,0,1-.769.77,24.5,24.5,0,0,0-7.062,2.927.97.97,0,0,1-1.146-.015c-1.12-.682-2.212-1.407-3.335-2.082a1.365,1.365,0,0,0-2.051.251q-2.46,2.437-4.9,4.9a1.413,1.413,0,0,0-.213,2.065c.693,1.089,1.352,2.2,2.06,3.276a.962.962,0,0,1,.025,1.153A26.342,26.342,0,0,0,5.671,25.3a.925.925,0,0,1-.792.753c-1.324.273-2.633.615-3.954.907A1.068,1.068,0,0,0,0,27.747v8.5a1.456,1.456,0,0,0,1,.644c1.422.3,2.833.66,4.252.975a.589.589,0,0,1,.517.515,25.841,25.841,0,0,0,3.17,7.613.617.617,0,0,1-.019.775c-.787,1.224-1.547,2.464-2.314,3.7-.427.688-.4.981.15,1.535q2.6,2.61,5.213,5.214c.563.56.854.591,1.533.17,1.254-.777,2.509-1.553,3.755-2.344a.587.587,0,0,1,.725-.006,25.473,25.473,0,0,0,7.552,3.155.707.707,0,0,1,.608.65c.3,1.422.66,2.833.976,4.252a1.02,1.02,0,0,0,1.138.9c2.478-.014,4.956,0,7.434-.006.779,0,1-.194,1.186-.985.327-1.4.667-2.788.973-4.188a.657.657,0,0,1,.564-.61,25.788,25.788,0,0,0,7.556-3.148.661.661,0,0,1,.831.026c1.225.784,2.464,1.547,3.7,2.313.648.4.957.371,1.486-.155q2.635-2.623,5.258-5.257a.974.974,0,0,0,.157-1.487c-.765-1.238-1.528-2.476-2.311-3.7a.662.662,0,0,1-.033-.831A25.631,25.631,0,0,0,58.2,38.475a.7.7,0,0,1,.628-.626c1.423-.3,2.836-.645,4.251-.981.729-.172.918-.415.918-1.176,0-2.479-.008-4.957.008-7.435m-2.229,7.127c-1.379.306-2.749.658-4.131.95a1.135,1.135,0,0,0-.971.982,24.6,24.6,0,0,1-3.5,8.4,1.107,1.107,0,0,0,.021,1.33c.762,1.19,1.49,2.4,2.255,3.591a.509.509,0,0,1-.074.781q-1.994,1.937-3.933,3.931a.509.509,0,0,1-.778.1c-1.185-.769-2.4-1.495-3.589-2.258a1.143,1.143,0,0,0-1.383-.005,24.313,24.313,0,0,1-8.35,3.472,1.172,1.172,0,0,0-1.011,1.02c-.286,1.362-.641,2.71-.933,4.07-.08.37-.194.511-.6.506-1.853-.025-3.707-.021-5.561,0-.372,0-.539-.08-.623-.477-.292-1.382-.649-2.75-.948-4.131a1.094,1.094,0,0,0-.917-.955,25.01,25.01,0,0,1-8.464-3.52,1.291,1.291,0,0,0-.635-.238,1.384,1.384,0,0,0-.692.257c-1.2.75-2.407,1.483-3.6,2.248-.311.2-.5.222-.781-.07q-1.937-1.992-3.933-3.93c-.314-.3-.277-.5-.065-.832.755-1.17,1.466-2.368,2.22-3.538a1.143,1.143,0,0,0,.01-1.383,24.4,24.4,0,0,1-3.474-8.35,1.173,1.173,0,0,0-1.02-1.012c-1.382-.289-2.751-.641-4.131-.943-.321-.07-.443-.18-.441-.526q.026-2.843,0-5.687c-.005-.383.145-.48.481-.554,1.379-.3,2.747-.659,4.129-.953a1.136,1.136,0,0,0,.973-.98,24.531,24.531,0,0,1,3.5-8.4,1.109,1.109,0,0,0-.018-1.332c-.74-1.155-1.426-2.345-2.195-3.48-.307-.454-.214-.68.142-1.025,1.273-1.229,2.522-2.486,3.755-3.755.3-.306.5-.367.879-.114,1.143.757,2.333,1.443,3.482,2.192a1.219,1.219,0,0,0,1.492.013A23.977,23.977,0,0,1,26.6,7.348a1.256,1.256,0,0,0,1.092-1.1c.281-1.363.631-2.712.926-4.073.07-.324.188-.438.53-.436,1.894.016,3.791.02,5.685,0,.387-.005.48.154.552.485.306,1.379.655,2.749.956,4.129a1.093,1.093,0,0,0,.923.948,24.934,24.934,0,0,1,8.517,3.554,1.069,1.069,0,0,0,1.275-.053c1.191-.76,2.4-1.491,3.592-2.254a.509.509,0,0,1,.779.076q1.937,2,3.931,3.933a.51.51,0,0,1,.1.778c-.769,1.186-1.491,2.4-2.256,3.591a1.139,1.139,0,0,0-.006,1.382,24.472,24.472,0,0,1,3.474,8.35,1.174,1.174,0,0,0,1.021,1.01c1.382.288,2.75.644,4.131.946.326.071.438.189.436.53-.018,1.9-.023,3.791,0,5.687.005.388-.157.48-.485.552"/><path class="a" d="M136.7,119.72a17,17,0,1,0,17.012,17.051A17.007,17.007,0,0,0,136.7,119.72m-.055,32.247a15.249,15.249,0,1,1,15.318-15.312,15.26,15.26,0,0,1-15.318,15.312" transform="translate(-104.721 -104.721)"/><path class="a" d="M136.7,119.72a17,17,0,1,0,17.012,17.051A17.007,17.007,0,0,0,136.7,119.72m-.055,32.247a15.249,15.249,0,1,1,15.318-15.312,15.26,15.26,0,0,1-15.318,15.312" transform="translate(-104.721 -104.721)"/></g></svg>